<svg xmlns="http://www.w3.org/2000/svg" width="1200" height="720" viewBox="0 0 1200 720" role="img" aria-label="ATS checklist illustration">
  <defs>
    <linearGradient id="bg" x1="0" y1="0" x2="1" y2="1">
      <stop offset="0%" stop-color="#ecfff6"/>
      <stop offset="100%" stop-color="#d8f7ea"/>
    </linearGradient>
  </defs>
  <rect width="1200" height="720" fill="url(#bg)"/>
  <rect x="120" y="82" width="960" height="556" rx="26" fill="#ffffff"/>
  <rect x="170" y="132" width="860" height="62" rx="14" fill="#f4fffa"/>
  <rect x="205" y="154" width="280" height="18" rx="9" fill="#63bc91"/>
  <g fill="none" stroke-linecap="round" stroke-linejoin="round">
    <rect x="182" y="242" width="34" height="34" rx="7" stroke="#89c9a9" stroke-width="4"/>
    <path d="M190 260l10 10 18-18" stroke="#17a365" stroke-width="5"/>
    <rect x="182" y="308" width="34" height="34" rx="7" stroke="#89c9a9" stroke-width="4"/>
    <path d="M190 326l10 10 18-18" stroke="#17a365" stroke-width="5"/>
    <rect x="182" y="374" width="34" height="34" rx="7" stroke="#89c9a9" stroke-width="4"/>
    <path d="M190 392l10 10 18-18" stroke="#17a365" stroke-width="5"/>
  </g>
  <rect x="235" y="250" width="730" height="14" rx="7" fill="#aadbc4"/>
  <rect x="235" y="316" width="690" height="14" rx="7" fill="#c2e7d5"/>
  <rect x="235" y="382" width="620" height="14" rx="7" fill="#d2eedf"/>
  <rect x="170" y="450" width="860" height="140" rx="16" fill="#f6fffb"/>
  <circle cx="260" cy="520" r="42" fill="#18a466" opacity=".15"/>
  <rect x="330" y="500" width="560" height="16" rx="8" fill="#b1dfc8"/>
  <rect x="330" y="532" width="460" height="14" rx="7" fill="#c8ead8"/>
</svg>
